PathFileType	4	(X/Y/Z)	C:/Users/beibeiliu/ov580/test_trc\sequence.32_training_dense_right.trc
DataRate	CameraRate	NumFrames	NumMarkers	Units	OrigDataRate	OrigDataStartFrame	OrigNumFrames
120	120	20	19	mm	120	233	310
Frame#	Time	ThumbCMC			ThumbMCP			ThumbIP			ThumbTip			IndexMCP			IndexPIP			IndexTip			MiddleMCP			MiddlePIP			MiddleTip			RingMCP			RingPIP			RingTip			PinkyMCP			PinkyPIP			PinkyTip			BackHand1			BackHand2			BackHand3	
		X0	Y0	Z0	X1	Y1	Z1	X2	Y2	Z2	X3	Y3	Z3	X4	Y4	Z4	X5	Y5	Z5	X6	Y6	Z6	X7	Y7	Z7	X8	Y8	Z8	X9	Y9	Z9	X10	Y10	Z10	X11	Y11	Z11	X12	Y12	Z12	X13	Y13	Z13	X14	Y14	Z14	X15	Y15	Z15	X16	Y16	Z16	X17	Y17	Z17	X18	Y18	Z18	
232	1.93333	193.672	41.1371	30.5748	176.939	49.4982	3.22787	171.034	53.115	-22.6595	162.862	47.5132	-43.759	226.131	42.2017	-31.0239	215.592	46.7929	-54.1651	198.598	49.3469	-70.1275	222.347	19.5596	-39.6645	207.282	25.3346	-60.9506	172.441	29.0981	-59.8818	224.635	-2.10824	-31.5989	220.632	4.22374	-58.2637	206.397	9.74094	-75.3508	217.355	-19.0368	-15.9666	225.497	-24.746	-34.6216	230.778	-27.1112	-47.5984	218.902	-5.23226	12.4869	211.647	-8.4594	42.2746	220.563	23.7624	31.8187	
233	1.94167	191.583	41.9983	29.663	174.62	51.9808	2.33221	169.084	53.8759	-23.0239	159.876	51.6145	-41.9779	223.356	44.5199	-27.2922	212.769	49.0652	-55.3164	195.375	49.6156	-67.3745	224.969	25.3222	-35.9991	209.558	28.6061	-61.0876	176.832	31.5297	-65.062	225.69	1.30353	-29.5197	223.451	1.44334	-54.9965	208.048	7.55049	-76.3503	216.225	-18.0308	-14.3475	227.581	-25.0371	-34.9382	233.557	-29.1008	-48.0566	218.361	-3.79838	17.2131	214.672	-4.24574	38.9624	219.321	20.9788	30.6458	
234	1.95	188.384	42.0648	29.397	173.777	49.373	-0.220285	166.445	53.8691	-23.4756	161.379	48.797	-43.231	222.336	43.8329	-32.0846	210.496	47.4459	-54.8585	187.753	51.6319	-67.6699	224.946	23.3673	-34.6184	213.206	28.5026	-60.9208	180.193	29.1221	-68.0126	227.268	4.06252	-27.9935	226.804	3.47243	-53.8741	210.083	11.6256	-76.7039	219.204	-19.1855	-14.7956	229.003	-19.3103	-31.1659	236.787	-23.0091	-47.9847	220.218	-1.03439	15.6628	213.772	-2.67043	39.3877	217.77	23.0478	29.1337	
235	1.95833	188.075	43.767	25.2686	170.989	50.5936	1.31074	164.766	54.8822	-24.2471	157.723	52.397	-43.8241	219.385	48.9615	-29.4934	207.26	52.4156	-54.716	188.2	46.1101	-65.5357	226.007	26.9671	-35.0469	212.364	29.4382	-63.2487	186.53	28.1397	-70.8221	226.775	4.78626	-25.9185	228.543	4.55872	-52.7024	214.157	10.1902	-73.3244	220.757	-12.3854	-13.7706	232.168	-21.6899	-33.6407	237.999	-23.0088	-47.7696	219.748	4.30075	17.3952	213.514	-0.361259	39.6605	218.429	26.3353	29.1587	
236	1.96667	186.575	44.9008	26.2519	169.303	50.9516	3.03393	165.716	52.5985	-23.6937	160.366	49.157	-45.8925	219.505	47.886	-29.0934	206.143	53.8742	-52.701	181.01	50.386	-64.9249	226.469	28.4051	-34.285	216.762	32.4188	-60.9173	185.096	27.1199	-72.5341	229.606	6.59434	-28.6328	230.398	7.31675	-52.8412	216.436	13.6152	-71.9584	225.53	-10.6695	-16.0808	233.528	-14.3496	-32.5458	243.028	-17.2787	-51.896	219.408	0.640661	14.8378	210.924	0.119631	41.8346	216.677	27.188	28.1197	
237	1.975	185.251	46.1717	25.8307	167.674	53.5488	0.36813	164.466	54.1626	-23.2612	159.709	49.1329	-44.7195	219.028	49.6018	-27.9845	207.211	50.7534	-52.1023	179.287	45.4803	-65.5042	228.22	30.5393	-36.5922	216.543	32.1927	-63.3854	187.867	29.112	-74.7019	231.614	9.86533	-29.7236	230.715	12.6945	-52.3014	217.311	13.5846	-73.0896	225.271	-9.99642	-15.5155	236.128	-16.3549	-32.8981	242.841	-15.0178	-50.9861	221.674	6.7845	15.5275	213.597	3.44111	40.1828	216.669	29.0173	31.1226	
238	1.98333	182.774	43.9008	28.6709	168.213	50.0067	-0.047343	161.185	55.6903	-23.4507	157.21	50.4778	-44.686	217.637	50.3018	-29.3378	204.664	56.4082	-51.5673	180.177	47.7398	-63.0628	228.337	31.9268	-34.5209	216.883	31.3548	-64.6786	193.664	29.8196	-75.8551	231.484	12.5703	-27.7181	232.162	12.8991	-52.9874	214.871	16.1527	-76.5978	226.747	-10.6345	-15.8145	236.455	-10.2214	-31.0023	247.375	-11.2796	-49.3344	220.834	7.9294	17.4736	211.595	0.16108	40.1783	215.747	31.3185	29.6014	
239	1.99167	180.596	46.1484	24.3677	167.095	49.1527	0.838865	160.018	53.565	-22.3684	158.603	48.426	-48.515	214.816	56.2165	-26.9151	203.711	55.9152	-51.5311	178.331	47.7844	-62.5355	227.807	33.9029	-33.5528	221.554	33.3809	-61.6556	193.622	33.6172	-76.8041	233.073	13.5266	-29.5635	231.87	15.8488	-55.1773	217.176	17.7765	-76.7786	225.724	-8.64066	-13.9002	236.648	-7.3002	-30.6785	248.968	-12.344	-50.0044	219.674	10.3283	13.4101	212.036	5.36569	38.3376	212.122	30.5294	31.3791	
240	2	180.137	41.7903	25.3897	162.705	51.5404	-1.65432	158.965	52.2334	-22.2344	154.089	49.6847	-45.5917	214.181	54.5507	-30.5082	199.639	53.2896	-54.8311	177.367	46.7365	-60.7849	227.588	35.6975	-34.9349	220.561	38.4047	-60.3174	192.113	35.1455	-77.8055	231.378	16.8734	-27.5343	231.948	20.689	-54.5019	221.34	22.9425	-72.4849	230.973	-7.17392	-15.8834	239.033	-4.92539	-30.3415	248.116	-7.24587	-47.8881	219.581	7.77481	17.0907	212.432	1.79798	42.4678	212.918	32.1555	30.2506	
241	2.00833	178.393	42.9155	24.7546	160.928	49.8148	-3.47044	158.544	51.0003	-25.2458	157.16	45.3402	-48.6773	210.721	56.7789	-28.325	199.44	55.8359	-52.2302	174.526	46.0575	-59.6541	225.854	39.5202	-33.2212	219.481	42.3781	-60.581	197.906	31.3497	-77.369	232.158	19.8368	-26.7773	233.222	22.5564	-54.3419	222.711	21.1896	-73.4138	229.679	-3.39225	-14.2162	240.405	-3.41689	-30.7252	252.468	-5.82092	-50.1702	220.598	11.7958	17.9781	210.634	6.48983	40.7069	211.364	34.1011	28.9922	
242	2.01667	176.682	43.0063	23.7759	162.077	46.2477	-2.1632	154.429	50.743	-25.0288	154.36	45.1106	-44.6702	207.838	60.7453	-25.0246	196.327	57.2105	-51.8819	174.326	42.0903	-59.9243	225.038	40.5478	-32.0313	217.152	44.8998	-62.0238	198.772	33.4585	-77.7628	230.704	21.0678	-25.0328	233.377	26.6995	-52.7087	221.313	23.4784	-76.7592	229.768	-1.44339	-13.0434	243.788	-1.47955	-32.1561	255.411	0.399423	-49.1028	219.093	15.5898	14.7208	211.787	6.30019	41.2665	207.054	34.476	32.7522	
243	2.025	172.401	41.9996	27.8095	158.375	46.2258	-0.692458	155.401	48.7999	-25.1263	151.882	46.3159	-47.156	207.26	60.255	-30.68	193.698	57.7525	-51.8625	172.125	42.6431	-59.3943	224.416	41.5221	-29.8244	221.118	44.0226	-59.5957	198.183	35.1116	-78.6844	231.042	25.2542	-25.9837	232.999	29.3525	-50.6634	223.601	28.149	-72.2778	230.035	3.83259	-14.1823	243.859	3.93047	-31.1254	252.017	3.78892	-45.4961	221.679	13.6175	14.3684	211.209	7.69776	39.4443	206.482	36.9508	31.8089	
244	2.03333	170.555	40.2691	27.6362	158.763	44.1539	-2.7445	154.098	48.0091	-28.1015	151.342	45.1257	-48.5554	205.831	58.88	-29.0923	192.063	55.8057	-53.1931	168.636	38.9421	-58.1239	222.708	46.435	-29.3404	219.633	44.8905	-59.6343	196.389	36.1876	-78.8479	232.762	25.6218	-25.1418	235.621	27.6058	-49.7713	222.244	29.6048	-75.3352	231.719	3.3014	-12.9125	243.944	6.28123	-29.5117	256.216	5.31085	-48.4036	219.403	17.8324	18.6326	210.288	8.27041	40.0582	205.669	39.241	28.6407	
245	2.04167	169.323	40.0716	27.1806	157.275	43.9699	-3.30386	153.424	46.2745	-23.8685	152.404	42.4553	-47.3943	203.237	60.5742	-26.4689	190.28	59.5957	-50.6935	168.842	36.9206	-57.0201	223.839	46.7109	-31.5471	218.926	47.8252	-58.5637	199.574	39.3438	-78.5519	232.473	26.2965	-24.5631	233.524	33.3224	-51.1151	224.965	30.4225	-71.3394	234.998	5.07622	-15.1971	243.726	8.66679	-29.3851	255.4	11.1252	-46.2168	219.648	19.3878	14.4917	209.854	10.4293	41.3816	201.725	38.7919	30.9579	
246	2.05	167.591	42.2212	25.3265	155.228	44.5923	-3.74954	152.801	45.2123	-24.7832	153.644	42.1378	-49.1358	200.842	61.8499	-27.0673	186.574	58.3662	-53.3645	168.609	40.5504	-58.3752	222.37	49.5539	-32.8246	217.91	48.4789	-60.645	194.59	40.1686	-79.2364	229.113	34.034	-23.928	234.508	34.9815	-51.4929	224.732	32.7008	-72.7715	232.567	9.32494	-13.9888	243.155	11.5821	-26.3354	258.3	14.532	-46.4907	221.164	18.9854	16.0745	211.163	10.9281	40.7408	200.316	40.5589	31.6091	
247	2.05833	165.523	41.9167	25.59	153.09	44.461	-3.25995	149.815	46.0388	-25.541	148.606	44.4417	-48.7561	196.651	65.5598	-26.3971	184.315	58.5125	-52.7445	163.668	38.6612	-56.3908	218.399	52.9631	-31.0464	214.833	52.8311	-60.3414	195.744	42.6282	-78.6695	232.087	34.5219	-26.7458	234.046	35.4579	-50.9098	223.786	35.4305	-73.9029	236.07	10.0643	-14.1065	245.432	15.0639	-28.4882	257.497	13.8488	-44.4961	217.688	19.2996	18.2234	208.979	15.2673	39.8604	201.088	42.9723	30.1178	
248	2.06667	165.508	38.6358	25.5541	152.164	41.5698	-0.622979	149.651	45.5951	-26.1027	147.587	43.1945	-49.0442	194.377	65.4428	-27.7029	185.904	58.4022	-52.0651	167.412	37.7081	-57.5726	219.613	53.0199	-33.3926	213.574	55.2027	-60.033	196	41.9507	-79.1789	228.011	36.5108	-24.4351	232.044	41.1956	-47.6557	222.642	37.8485	-74.1253	234.382	12.7261	-13.0961	245.547	16.079	-28.641	260.227	16.6838	-46.3112	218.257	22.8782	18.3013	213.428	13.0921	41.5317	200.002	40.3075	29.0941	
249	2.075	167.031	36.5364	26.9628	153.431	41.2902	-4.15702	150.159	42.9491	-24.503	149.547	40.7981	-50.7816	194.492	64.8695	-29.8738	182.298	58.6158	-52.6696	167.661	36.3212	-57.5822	219.033	55.1011	-33.2394	213.78	57.4012	-58.857	196.16	39.9787	-80.7394	229.77	39.9212	-26.3886	232.693	41.8608	-50.3972	223.312	39.4237	-73.7134	234.442	17.8781	-14.7579	247.263	14.8706	-27.4848	258.618	20.9705	-47.8533	216.89	27.013	18.1671	210.847	15.3517	42.7236	201.822	39.7195	31.3839	
250	2.08333	165.017	38.6828	22.6076	149.343	38.5738	-2.29892	146.331	42.3049	-26.8321	150.161	37.8387	-48.5352	190.051	66.3978	-30.7383	184.112	57.6187	-52.6293	165.862	36.8898	-57.5939	215.233	55.3652	-30.3386	213.761	55.692	-60.3872	196.428	40.8049	-79.9628	228.889	36.1466	-22.9773	233.566	41.7629	-48.9426	223.961	39.7884	-74.7531	235.036	16.8179	-14.0032	248.986	19.4391	-29.4973	258.345	22.4725	-46.2047	216.248	26.7925	19.8478	210.117	18.3149	39.7843	197.848	43.9272	28.339	
251	2.09167	162.341	37.725	24.1604	151.405	35.0854	-1.53995	147.055	37.567	-24.345	149.235	36.6829	-50.9807	188.066	65.9209	-25.3341	176.804	58.4774	-53.0886	164.573	30.856	-57.3377	211.772	58.3667	-29.0769	210.447	57.3543	-60.4424	194.957	44.3357	-80.1029	226.628	41.1297	-23.9149	233.372	43.7179	-49.1526	222.338	42.5424	-73.2912	236.258	18.0251	-13.1908	247.401	23.0196	-29.9199	259.218	28.3364	-45.1274	217.149	29.8558	17.6591	212.614	16.5094	38.53	196.879	42.8705	28.3258	
